<svg data-v-fde0c5aa="" xmlns="http://www.w3.org/2000/svg" viewBox="0 0 300 300" class="iconLeftSlogan"><!----><defs data-v-fde0c5aa=""><linearGradient data-v-fde0c5aa="" gradientTransform="rotate(25)" id="1060bef7-4ce8-413f-bac8-c386095b18ea" x1="0%" y1="0%" x2="100%" y2="0%"><stop data-v-fde0c5aa="" offset="0%" stop-color="#3C1143" stop-opacity="1"></stop><stop data-v-fde0c5aa="" offset="100%" stop-color="#C25178" stop-opacity="1"></stop></linearGradient></defs><rect data-v-fde0c5aa="" fill="url(#1060bef7-4ce8-413f-bac8-c386095b18ea)" x="0" y="0" width="300px" height="300px" class="logo-background-square"></rect><defs data-v-fde0c5aa=""><!----></defs><g data-v-fde0c5aa="" id="4e559114-f8b1-4a47-b11f-0e77b35bb1bc" fill="#ffffff" transform="matrix(2.7882113456726074,0,0,2.7882113456726074,121.31916420818621,112.00897290623094)"><path d="M6.68 8.79L7.49 4.98L7.49 4.98Q6.92 5.29 6.27 6.14L6.27 6.14L6.27 6.14Q5.63 6.99 4.97 8.30L4.97 8.30L4.97 8.30Q5.47 8.40 5.90 8.53L5.90 8.53L5.90 8.53Q6.33 8.65 6.68 8.79L6.68 8.79ZM8.58 3.99L8.58 3.99L8.58 3.99Q8.88 3.99 9.17 4.04L9.17 4.04L9.17 4.04Q9.46 4.09 9.69 4.19L9.69 4.19L7.49 14.49L5.47 14.49L6.55 9.41L6.55 9.41Q6.06 9.18 5.63 9.07L5.63 9.07L5.63 9.07Q5.19 8.95 4.68 8.90L4.68 8.90L4.68 8.90Q3.88 10.64 3.37 12.43L3.37 12.43L3.37 12.43Q2.86 14.22 2.86 15.30L2.86 15.30L2.86 15.30Q2.86 15.55 2.91 15.74L2.91 15.74L2.91 15.74Q2.95 15.93 3.05 16.09L3.05 16.09L3.05 16.09Q1.99 16.09 1.58 15.72L1.58 15.72L1.58 15.72Q1.18 15.36 1.18 14.60L1.18 14.60L1.18 14.60Q1.18 13.66 1.74 12.10L1.74 12.10L1.74 12.10Q2.31 10.53 3.23 8.90L3.23 8.90L3.23 8.90Q2.52 8.95 2.12 9.13L2.12 9.13L2.12 9.13Q1.72 9.31 1.60 9.63L1.60 9.63L1.60 9.63Q1.65 9.63 1.72 9.78L1.72 9.78L1.72 9.78Q1.78 9.93 1.78 10.07L1.78 10.07L1.78 10.07Q1.78 10.30 1.55 10.46L1.55 10.46L1.55 10.46Q1.33 10.61 0.99 10.61L0.99 10.61L0.99 10.61Q0.60 10.61 0.36 10.39L0.36 10.39L0.36 10.39Q0.13 10.18 0.13 9.80L0.13 9.80L0.13 9.80Q0.13 9.07 0.95 8.57L0.95 8.57L0.95 8.57Q1.76 8.08 2.98 8.08L2.98 8.08L2.98 8.08Q3.12 8.08 3.30 8.09L3.30 8.09L3.30 8.09Q3.49 8.09 3.71 8.12L3.71 8.12L3.71 8.12Q4.94 6.17 6.22 5.08L6.22 5.08L6.22 5.08Q7.49 3.99 8.58 3.99ZM9.24 12.89L9.24 12.89L9.24 12.89Q9.24 12.71 9.27 12.48L9.27 12.48L9.27 12.48Q9.30 12.25 9.35 11.98L9.35 11.98L10.85 4.97L12.92 4.69L11.31 12.25L11.31 12.25Q11.28 12.38 11.27 12.48L11.27 12.48L11.27 12.48Q11.26 12.59 11.26 12.70L11.26 12.70L11.26 12.70Q11.26 12.98 11.39 13.10L11.39 13.10L11.39 13.10Q11.52 13.22 11.83 13.22L11.83 13.22L11.83 13.22Q12.22 13.22 12.57 12.87L12.57 12.87L12.57 12.87Q12.92 12.53 13.09 11.98L13.09 11.98L13.68 11.98L13.68 11.98Q13.23 13.26 12.47 13.92L12.47 13.92L12.47 13.92Q11.72 14.57 10.74 14.57L10.74 14.57L10.74 14.57Q10.04 14.57 9.64 14.13L9.64 14.13L9.64 14.13Q9.24 13.69 9.24 12.89ZM14.95 14.57L14.95 14.57L14.95 14.57Q14.01 14.57 13.50 14.11L13.50 14.11L13.50 14.11Q12.99 13.64 12.99 12.78L12.99 12.78L12.99 12.78Q12.99 12.59 13.02 12.39L13.02 12.39L13.02 12.39Q13.05 12.19 13.09 11.98L13.09 11.98L14.59 4.97L16.66 4.69L15.99 7.84L15.99 7.84Q16.32 7.63 16.58 7.54L16.58 7.54L16.58 7.54Q16.84 7.45 17.14 7.45L17.14 7.45L17.14 7.45Q17.96 7.45 18.38 8.04L18.38 8.04L18.38 8.04Q18.79 8.64 18.79 9.84L18.79 9.84L18.79 9.84Q18.79 10.67 18.54 11.54L18.54 11.54L18.54 11.54Q18.28 12.40 17.84 13.05L17.84 13.05L17.84 13.05Q17.32 13.80 16.59 14.19L16.59 14.19L16.59 14.19Q15.86 14.57 14.95 14.57ZM14.99 12.57L14.99 12.57L14.99 12.57Q14.99 12.89 15.18 13.05L15.18 13.05L15.18 13.05Q15.37 13.22 15.74 13.22L15.74 13.22L15.74 13.22Q16.37 13.22 16.87 12.11L16.87 12.11L16.87 12.11Q17.37 11.00 17.37 9.79L17.37 9.79L17.37 9.79Q17.37 9.20 17.17 8.82L17.17 8.82L17.17 8.82Q16.97 8.44 16.63 8.44L16.63 8.44L16.63 8.44Q16.41 8.44 16.16 8.51L16.16 8.51L16.16 8.51Q15.90 8.58 15.81 8.69L15.81 8.69L15.04 12.25L15.04 12.25Q15.02 12.33 15.01 12.42L15.01 12.42L15.01 12.42Q14.99 12.50 14.99 12.57ZM24.02 8.13L24.02 8.13L24.02 8.23L24.18 7.49L26.19 7.49L25.19 12.25L25.19 12.25Q25.16 12.38 25.14 12.48L25.14 12.48L25.14 12.48Q25.13 12.59 25.13 12.70L25.13 12.70L25.13 12.70Q25.13 13.01 25.27 13.15L25.27 13.15L25.27 13.15Q25.41 13.30 25.70 13.30L25.70 13.30L25.70 13.30Q26.07 13.30 26.36 12.96L26.36 12.96L26.36 12.96Q26.66 12.61 26.84 11.98L26.84 11.98L27.43 11.98L27.43 11.98Q26.98 13.27 26.26 13.92L26.26 13.92L26.26 13.92Q25.55 14.57 24.61 14.57L24.61 14.57L24.61 14.57Q24.01 14.57 23.65 14.24L23.65 14.24L23.65 14.24Q23.30 13.90 23.24 13.29L23.24 13.29L23.24 13.29Q22.81 13.93 22.28 14.25L22.28 14.25L22.28 14.25Q21.76 14.57 21.15 14.57L21.15 14.57L21.15 14.57Q20.29 14.57 19.79 13.99L19.79 13.99L19.79 13.99Q19.29 13.40 19.29 12.32L19.29 12.32L19.29 12.32Q19.29 11.54 19.53 10.68L19.53 10.68L19.53 10.68Q19.77 9.83 20.19 9.13L20.19 9.13L20.19 9.13Q20.71 8.30 21.39 7.86L21.39 7.86L21.39 7.86Q22.08 7.42 22.89 7.42L22.89 7.42L22.89 7.42Q23.44 7.42 23.73 7.61L23.73 7.61L23.73 7.61Q24.02 7.80 24.02 8.13ZM23.23 11.98L23.90 8.82L23.90 8.82Q23.90 8.61 23.74 8.45L23.74 8.45L23.74 8.45Q23.59 8.29 23.32 8.29L23.32 8.29L23.32 8.29Q22.55 8.29 21.96 9.58L21.96 9.58L21.96 9.58Q21.36 10.86 21.36 12.12L21.36 12.12L21.36 12.12Q21.36 12.67 21.52 12.94L21.52 12.94L21.52 12.94Q21.67 13.22 22.06 13.22L22.06 13.22L22.06 13.22Q22.43 13.22 22.77 12.87L22.77 12.87L22.77 12.87Q23.11 12.52 23.23 11.98L23.23 11.98ZM30.24 12.99L30.24 12.99L30.24 12.99Q30.24 12.74 30.30 12.36L30.30 12.36L30.30 12.36Q30.37 11.98 30.56 11.16L30.56 11.16L30.56 11.16Q30.76 10.36 30.81 10.01L30.81 10.01L30.81 10.01Q30.87 9.66 30.87 9.42L30.87 9.42L30.87 9.42Q30.87 9.07 30.74 8.89L30.74 8.89L30.74 8.89Q30.62 8.71 30.37 8.71L30.37 8.71L30.37 8.71Q30.03 8.71 29.74 9.05L29.74 9.05L29.74 9.05Q29.46 9.39 29.27 10.00L29.27 10.00L28.32 14.49L26.31 14.49L27.79 7.49L29.81 7.49L29.65 8.22L29.65 8.22Q30.00 7.83 30.41 7.63L30.41 7.63L30.41 7.63Q30.81 7.43 31.29 7.43L31.29 7.43L31.29 7.43Q32.03 7.43 32.44 7.84L32.44 7.84L32.44 7.84Q32.84 8.25 32.84 9.02L32.84 9.02L32.84 9.02Q32.84 9.34 32.77 9.78L32.77 9.78L32.77 9.78Q32.69 10.22 32.47 11.13L32.47 11.13L32.47 11.13Q32.28 11.84 32.23 12.14L32.23 12.14L32.23 12.14Q32.17 12.43 32.17 12.63L32.17 12.63L32.17 12.63Q32.17 12.92 32.31 13.07L32.31 13.07L32.31 13.07Q32.45 13.22 32.73 13.22L32.73 13.22L32.73 13.22Q33.08 13.22 33.33 12.98L33.33 12.98L33.33 12.98Q33.59 12.74 33.91 11.98L33.91 11.98L34.50 11.98L34.50 11.98Q34.05 13.29 33.41 13.93L33.41 13.93L33.41 13.93Q32.77 14.57 31.89 14.57L31.89 14.57L31.89 14.57Q31.11 14.57 30.67 14.15L30.67 14.15L30.67 14.15Q30.24 13.72 30.24 12.99ZM33.71 12.33L33.71 12.33L33.71 12.33Q33.71 11.54 33.97 10.64L33.97 10.64L33.97 10.64Q34.23 9.74 34.68 9.04L34.68 9.04L34.68 9.04Q35.20 8.22 35.92 7.79L35.92 7.79L35.92 7.79Q36.65 7.36 37.55 7.36L37.55 7.36L37.55 7.36Q38.44 7.36 38.89 7.92L38.89 7.92L38.89 7.92Q39.34 8.48 39.34 9.60L39.34 9.60L39.34 9.60Q39.37 9.62 39.40 9.63L39.40 9.63L39.40 9.63Q39.44 9.63 39.49 9.63L39.49 9.63L39.49 9.63Q39.93 9.63 40.53 9.39L40.53 9.39L40.53 9.39Q41.13 9.16 41.65 8.79L41.65 8.79L41.78 9.17L41.78 9.17Q41.38 9.59 40.73 9.90L40.73 9.90L40.73 9.90Q40.08 10.21 39.30 10.33L39.30 10.33L39.30 10.33Q39.13 12.22 38.21 13.38L38.21 13.38L38.21 13.38Q37.28 14.55 35.95 14.55L35.95 14.55L35.95 14.55Q34.86 14.55 34.29 13.99L34.29 13.99L34.29 13.99Q33.71 13.43 33.71 12.33ZM37.66 8.22L37.66 8.22L37.66 8.22Q36.99 8.22 36.39 9.58L36.39 9.58L36.39 9.58Q35.80 10.93 35.80 12.15L35.80 12.15L35.80 12.15Q35.80 12.81 35.95 13.05L35.95 13.05L35.95 13.05Q36.09 13.29 36.51 13.29L36.51 13.29L36.51 13.29Q37.03 13.29 37.50 12.45L37.50 12.45L37.50 12.45Q37.97 11.61 38.14 10.37L38.14 10.37L38.14 10.37Q37.94 10.33 37.85 10.19L37.85 10.19L37.85 10.19Q37.76 10.04 37.76 9.79L37.76 9.79L37.76 9.79Q37.76 9.52 37.87 9.32L37.87 9.32L37.87 9.32Q37.98 9.13 38.19 9.03L38.19 9.03L38.19 9.03Q38.16 8.58 38.05 8.40L38.05 8.40L38.05 8.40Q37.93 8.22 37.66 8.22ZM42.34 3.99L43.81 3.99L42.53 6.64L41.48 6.64L42.34 3.99ZM48.20 12.15L48.20 12.15L48.20 12.15Q48.20 12.32 48.19 12.45L48.19 12.45L48.19 12.45Q48.17 12.57 48.15 12.68L48.15 12.68L48.15 12.68Q48.43 12.52 48.69 12.33L48.69 12.33L48.69 12.33Q48.96 12.15 49.15 11.98L49.15 11.98L49.74 11.98L49.74 11.98Q49.31 12.49 48.78 12.92L48.78 12.92L48.78 12.92Q48.26 13.34 47.60 13.73L47.60 13.73L47.60 13.73Q47.22 14.14 46.63 14.36L46.63 14.36L46.63 14.36Q46.05 14.57 45.40 14.57L45.40 14.57L45.40 14.57Q44.46 14.57 43.91 14.06L43.91 14.06L43.91 14.06Q43.36 13.55 43.36 12.78L43.36 12.78L43.36 12.78Q43.36 12.35 43.57 11.99L43.57 11.99L43.57 11.99Q43.78 11.63 44.10 11.48L44.10 11.48L44.10 11.48Q44.58 10.63 44.99 9.65L44.99 9.65L44.99 9.65Q45.40 8.68 45.82 7.34L45.82 7.34L47.89 7.06L47.89 7.06Q47.94 8.11 47.99 8.97L47.99 8.97L47.99 8.97Q48.05 9.84 48.13 10.86L48.13 10.86L48.13 10.86Q48.17 11.45 48.19 11.69L48.19 11.69L48.19 11.69Q48.20 11.93 48.20 12.15ZM45.91 8.85L45.91 8.85L45.91 8.85Q45.72 9.42 45.47 10.04L45.47 10.04L45.47 10.04Q45.21 10.67 44.77 11.49L44.77 11.49L44.77 11.49Q44.93 11.56 45.01 11.69L45.01 11.69L45.01 11.69Q45.09 11.82 45.09 11.98L45.09 11.98L45.09 11.98Q45.09 12.25 44.91 12.46L44.91 12.46L44.91 12.46Q44.73 12.67 44.48 12.67L44.48 12.67L44.48 12.67Q44.34 12.67 44.24 12.62L44.24 12.62L44.24 12.62Q44.14 12.57 44.10 12.49L44.10 12.49L44.10 12.49Q44.10 13.01 44.30 13.24L44.30 13.24L44.30 13.24Q44.51 13.47 44.95 13.47L44.95 13.47L44.95 13.47Q45.53 13.47 45.85 13.13L45.85 13.13L45.85 13.13Q46.17 12.80 46.17 12.17L46.17 12.17L46.17 12.17Q46.17 11.97 46.16 11.77L46.16 11.77L46.16 11.77Q46.14 11.56 46.10 11.09L46.10 11.09L46.10 11.09Q46.03 10.43 45.99 9.93L45.99 9.93L45.99 9.93Q45.95 9.42 45.91 8.85Z"></path></g><defs data-v-fde0c5aa=""><!----></defs><g data-v-fde0c5aa="" id="8330e768-f7db-401f-ada2-620bc963422f" stroke="none" fill="#ffffff" transform="matrix(0.7630953788757324,0,0,0.7630953788757324,36.184523218566085,111.84523218566085)"><path d="M93.408 82.469c-.614-2.99-1.555-5.993-2.106-8.996-.603-3.283-1.397-6.566-1.964-9.855-.704-4.088-1.353-8.207-2.209-12.262-.353-1.675.2-3.132.311-4.686.269-3.779.534-7.527-.258-11.29a171.047 171.047 0 0 1-1.705-9.427c-.397-2.604-.625-5.234-.925-7.85 2.672-.81 3.35-4.973 2.665-7.344-.761-2.63-2.574-4.07-5.994-4.725-.521-.1-1.005-.382-1.515-.552-.558-.187-1.129-.484-1.694-.482-1.72.006-3.457.01-5.157.238-2.943.394-5.868.937-8.794 1.451-3.854.676-7.702 1.394-11.556 2.068-.831.145-1.682.271-2.521.252-3.927-.09-7.741.71-11.577 1.376-1.242.216-2.52.22-3.779.346-2.342.234-4.682.485-7.022.731-2.378.25-4.753.524-7.134.75-2.554.242-5.141.278-7.658.719-1.566.274-2.976.966-3.967 2.617-1.078 1.796-2.608 3.525-3.091 5.578-.103.435-.758.872-.758 1.308v2.98c0 1.063.882 2.126 1.09 3.19.346 1.762.774 3.588 2.02 5.011 1.15 1.314 2.45 2.599 3.668 3.85a34.223 34.223 0 0 0 2.847 2.605c4.92 4.018 9.918 7.974 14.824 12.009 3.897 3.205 7.751 6.481 11.599 9.747 4.441 3.77 8.923 7.502 13.288 11.36 8.364 7.391 17.161 14.243 25.97 21.078 1.492 1.158 3.161.937 4.235-.57 1.747-2.45 4.279-4.882 6.636-6.807C92.232 86.026 94 85.072 95 84.16v-.851c-1-.278-1.526-.517-1.592-.84zM8.838 22.733l.728 7.391c-1.078-2.35-1.376-4.745-.728-7.391zM11 32.96c0 .024.022.047-.049.071-.11-.354-.207-.702-.237-1.062-.352-4.23-.796-8.463-1.145-12.694C9.465 18.022 8 17.129 11 16.587V32.96zm22.932-19.843c.417.238.944.384 1.232.73 1.925 2.319 3.604 4.846 4.105 7.847.237 1.42-.296 2.976-.535 4.461-.022.138-.464.33-.674.292-.47-.086-.917-.302-1.334-.451 1.426-4.81-.138-8.835-2.897-12.58l.103-.299zM13.309 33.589l-.3.002c-.297-5.705-.02-11.419-.121-17.127l.296-.088c.135.264.39.53.386.792-.07 5.474-.168 10.947-.261 16.421zm2.139-3.432c-.824 1.873.271 3.918-.631 5.791-.371-6.012-.009-12.026-.027-18.039l.329-.094c.179.513.513 1.028.51 1.54-.02 3.495-.112 6.99-.18 10.485-.001.106.038.228-.001.317zm1.688 7.831c-.407-.499-.84-.792-.816-1.042.097-1.021.327-2.03.522-3.041.053-.277.239-.55.22-.815-.156-2.213.96-4.16 1.272-6.274.462-3.125.605-6.215-1.179-9.015-.591-.927-1.42-1.702-2.237-2.658 2.866-.262 5.798-.516 8.727-.802 2.482-.242 4.958-.544 7.442-.761.509-.044 1.261-.017 1.527.297 2.651 3.13 4.067 6.641 2.989 10.832-.173.674-.481.932-1.235.954-1.143.033-2.294.238-3.414.491-.7.158-1.34.546-1.062 1.586-1.564-.282-1.937 1.131-2.755 1.845-.74.647-1.352.84-2.262.503-1.332-.493-2.702-.884-4.06-1.308a1.605 1.605 0 0 0-.523-.048c-1.824.064-2.562.892-2.72 3.059-.141 1.94-.273 3.882-.436 6.197zm1.586 1.129c-.17-.381-.5-.77-.482-1.142.08-1.66.258-3.316.407-4.973.011-.126.072-.247.116-.392.558.453.646 3.605-.041 6.507zm2.072 1.844c-.157-.244-.447-.486-.451-.733-.037-2.075-.021-4.151-.021-6.226l.405-.079c.136.267.386.532.391.801.033 2.043.018 4.086.018 6.13a44.85 44.85 0 0 0-.342.107zm2.099 1.902c-.182-.293-.514-.583-.521-.879-.045-2.132-.024-4.266-.024-6.399l.3-.088c.156.22.445.438.449.66.034 2.202.021 4.405-.204 6.706zm2.171 1.413l-.291.072c-.142-.306-.401-.61-.406-.919-.036-2.114-.019-4.23-.019-6.72.457.605.987.983.983 1.356-.017 2.071-.164 4.141-.267 6.211zm2.147 1.907l-.358.117c-.203-.447-.567-.888-.582-1.341-.065-1.974-.028-3.952-.028-6.104 1.104.436 1.353.993 1.279 1.85-.155 1.821-.213 3.651-.311 5.478zm1.612 1.741c-.105-.266-.308-.535-.298-.796.073-2.015.187-4.029.289-6.043l.288-.134c.166.365.494.741.472 1.095-.124 1.939-.333 3.873-.751 5.878zm2.254 1.321l-.304.068c-.099-.288-.291-.578-.281-.862.065-1.906.173-3.812.451-5.806.131.258.381.52.374.774-.051 1.943-.154 3.885-.24 5.826zm2.014 1.636l-.357.009c-.11-.3-.309-.599-.314-.901-.03-1.831-.015-3.663-.015-5.495l.426-.088c.178.332.514.667.507.995-.036 1.827-.155 3.653-.247 5.48zm2.113 1.612c-.296-.377-.632-.606-.628-.83.03-1.68.126-3.358.202-5.037l.296-.111c.182.427.532.861.517 1.281-.052 1.478-.231 2.951-.387 4.697zm2.74-2.108c-.115.622-.134 1.266-.162 1.901-.026.593-.005 1.189-.005 1.835-.856-.41-.89-.719-.683-5.261.94.398 1.021.602.85 1.525zm2.634 2.682c-.195 1.018-.042 2.103-.042 3.3-.923-.379-1.213-.889-1.167-1.708.067-1.186.017-2.378.017-3.673.92.498 1.403.978 1.192 2.081zm2.471 2.279c-.231 1.014-.197 2.089-.3 3.406-1.477-1.749-.466-3.596-.886-5.424 1.07.503 1.413 1.024 1.186 2.018zm2.602 6.102c-.791-.578-1.489-1.129-1.409-2.302.084-1.217.019-2.445.019-3.992.678.632 1.097 1.002 1.488 1.4.138.14.305.354.293.522-.106 1.431-.25 2.86-.391 4.372zm1.629 1.345l-.322.022c0-.458-.005-.917.001-1.375.008-.566.029-1.132.036-1.698.006-.529.001-1.058.001-1.587l.45-.079c.052.454.169.912.142 1.362-.068 1.121-.201 2.237-.308 3.355zm2.156 1.996c-.899-1.409-.031-2.949-.154-4.415.677 1.425.179 2.938.154 4.415zm2.412 1.914c-1.467-1.312-.528-2.981-.924-4.739 2.151 1.466.364 3.286.924 4.739zm2.716 2.238c-1.244-.635-1.58-2.431-.932-4.358 1.775 1.175.546 2.862.932 4.358zm2.182 1.922c-.71-.357-.979-2.106-.587-3.81 1.016.584 1.093 1.079.587 3.81zm1.933-2.36c.802 1.31-.058 2.747.361 4.186-.832-.385-.893-1.201-.361-4.186zm2.342 5.999c-1.115-1.438-.267-3.13-.665-4.724 1.25.36.877.077.665 4.724zm1.41 1.75c-.144.011-.431.021-.431.031v-4.335c2 1.353.011 2.867.431 4.304zm3.955-.088c-.187.873-.113 1.803-.162 2.827-.883-.521-1.523-.968-1.416-2.072.105-1.081.023-2.181.023-3.415 1.164.644 1.843 1.319 1.555 2.66zm2.491 4.924l-.306.122c-.201-.374-.553-.74-.574-1.124-.072-1.299-.028-2.605-.028-3.919.689.27.975.747.926 1.539-.071 1.123-.018 2.254-.018 3.382zm1.623.821c.092-1.11.02-2.234.02-3.473 1.099.553 1.448 1.244 1.385 2.305-.066 1.105.118 2.224.204 3.502-1.047-.585-1.707-1.142-1.609-2.334zm4.243.969c-.187 1.102-.139 2.244-.2 3.477-.82-.36-1.09-.845-1.046-1.624.067-1.192.017-2.391.017-3.62.783.263 1.429.589 1.229 1.767zm2.664 1.797c-.227 1.21-.258 2.457-.374 3.688l-.273.168c-.207-.345-.586-.688-.589-1.034-.012-1.303.098-2.606.165-3.97.744.042 1.265.118 1.071 1.148zm2.447 5.947c-1.203-.512-1.712-1.157-1.344-2.429.246-.851.152-1.802.215-2.791l1.49.552-.361 4.668zm1.518.757l.267-4.487c.438.351 1.119.678 1.088.908-.166 1.236.351 2.762-1.355 3.579zm2.761-3.1c0-.232-.103-.562.017-.738.715-1.049-.045-1.514-.746-1.978-1.997-1.324-4.083-2.524-5.995-3.96-2.759-2.072-5.439-4.256-8.074-6.487-5.113-4.331-10.241-8.647-15.231-13.118-5.591-5.009-11.019-10.2-16.549-15.277a1124.29 1124.29 0 0 0-12.559-11.35c-1.79-1.594-3.682-3.074-5.542-4.618.911-.705 2.154-.616 3.096.137.553.442 1.064 1.155 1.886.357.091-.088.463.044.662.153 1.127.615 2.154.331 3-.472 1.033-.98 2.075-1.783 3.608-1.496.105.02.238-.114.41-.203l-.408-1.453c.899-.306 1.847-.792 2.9-.209.03.017.07.054.088.046 1.897-.858 3.437.54 5.141.859 2.234.419 4.752-.228 4.925-3.006.021-.343.646-.903 1.021-.929 2.545-.179 5.024.093 7.288 1.452.263.158.703.11 1.036.041.799-.167 1.575-.446 2.376-.6.801-.154 1.766.015 1.72-1.302-.005-.131.534-.389.829-.403 1.052-.05 2.107-.019 3.161-.019-.009-1.086-.503-1.471-2.089-1.686-2.238-.304-3.352.138-3.742 1.484-1.102.176-2.482-.483-3.129.808-1.661-.402-3.364-.871-5.093-1.212-.958-.189-1.957-.219-2.938-.221-1.217-.002-1.813.513-2.102 1.647-.593 2.333-1.041 2.598-3.519 2.066 1.853-2.287 1.482-4.799.444-7.18-.958-2.199-2.287-4.236-3.463-6.362 1.974-.255 4.185-.535 6.395-.828 4.175-.555 8.362-1.033 12.52-1.699 5.178-.833 10.328-1.843 15.498-2.727 2.103-.36 4.228-.594 6.343-.881.101-.014.256-.03.305.026 1.049 1.201 2.566.913 3.886 1.251 1.359.347 2.989 2.653 3.027 4.407.051 2.344-1.216 4.223-2.227 6.256-1.813-1.372-3.687-1.899-5.795-1.244-.685.213-1 .578-.925 1.394.133 1.45-.333 1.781-1.73 1.335-.88-.281-1.702-.359-2.524.173-.153.099-.449.07-.643 0-2.674-.958-5.089-.337-7.353 1.2-.75.509-.584 1.302-.317 1.9.155.347.819.465 1.257.682.014.007.053-.036.129-.092-.007-1.015.701-1.534 1.564-1.818 1.556-.512 3.111-1.081 4.721 0 .356.239 1.121.206 1.51-.023.697-.41 1.238-.162 1.87.027 1.262.377 2.528.109 2.921-.747.311-.677.338-1.485.552-2.535 1.211.167 2.546.327 3.867.561.2.035.457.402.486.64.206 1.717.379 3.438.508 5.162.017.225-.217.577-.43.692-.614.333-.988.815-.664 1.44.179.344.739.49 1.127.724l.23-.234.609 3.114c-1.971-1.194-4.044-1.435-6.087-.997-4.181.897-5.732 3.384-6.178 7.476-.274 2.508.119 4.938 1.68 7.051 1.242 1.682 2.908 2.791 4.855 3.409 1.54.489 3.063 1.195 4.792.713.651-.181 1.394-.029 2.119-.029 1.456 11.885 1.833 23.857 5.218 35.121l-5.545 4.329zM61.96 36.118c-.373-.288-.633-.719-.958-1.072-.403-.437-.765-.94-1.241-1.28-2.544-1.816-5.441-2.517-8.777-2.657-.62.07-1.504.101-2.359.277-5.747 1.189-10.219 4.911-10.081 11.702.063 3.125 1.873 5.556 4.882 6.374 2.65.721 5.287.543 7.894-.213 4.344-1.259 8.334-3.156 11.359-6.67 1.988-2.306 1.696-4.595-.719-6.461zM54.199 33h-5.444c.016 0 .031-.433.047-.563 1.805.08 3.61.246 5.415.325-.006.051-.012.238-.018.238zm28.665 25.743c.659 1.392 1.314 2.819 1.695 4.303.995 3.88-.533 6.443-4.354 7.437-1.179.307-2.416.391-3.284.524-4.531-.281-8.317-1.373-11.035-4.866-3.14-4.037-2.302-9.931 1.767-12.371 2.217-1.329 4.577-1.286 7.025-.858 2.537.443 4.777 1.428 6.531 3.329.671.727 1.231 1.604 1.655 2.502zM38.036 34.136c.014.147.066.294.026.326-.803.642-1.572 1.345-2.444 1.875-.542.329-.921-.035-.934-.687-.018-.915.849-2.091 1.729-2.307.833-.204.947.305.892.95l.731-.157zm46.413 40.093c.02.943-.195 1.873-1.045 2.402-.357.222-.902.139-1.362.195.018-.452-.426-.918-.324-1.349.062-.264.282-.475.282-.901v1.316c1-.948 1.237-1.544.298-2.291.618-.126 1.219-.336 1.491-.225.237.097.654.552.66.853zM66.67 49.617c-.337-1.067.175-2.675 1.076-3.136.283-.145.694-.039 1.047-.047-.185.204-.4.39-.55.617-.335.507-.637 1.036-.953 1.556l.242.169 1.598-1.781c-.005 1.618-1.086 2.688-2.46 2.622zm2.249-20.259c.073-1.16.959-1.637 3.446-1.91-.128 1.258-1.691 2.15-3.446 1.91zM55.294 54.909c-.466.359-.824.793-1.275.937-.416.133-1.164.133-1.355-.121-.403-.536-.016-1.03.565-1.316.829-.407 1.51-.309 2.065.5z"></path></g><defs data-v-fde0c5aa=""><!----></defs><g data-v-fde0c5aa="" id="f588ef88-44cf-4262-b33c-673b8398023d" fill="#ffffff" transform="matrix(0.7521939873695374,0,0,0.7521939873695374,120.82942560003214,165.20780256832668)"><path d="M2.18 8.18L5.31 8.18C7.28 8.18 8.50 7.03 8.50 5.19C8.50 3.37 7.28 2.21 5.31 2.21L1.13 2.21L1.13 11.48L2.18 11.48ZM5.24 3.21C6.69 3.21 7.45 3.96 7.45 5.19C7.45 6.44 6.69 7.20 5.24 7.20L2.18 7.20L2.18 3.21ZM23.65 2.21L23.65 7.52C23.65 9.67 22.22 10.57 20.75 10.57C19.28 10.57 17.86 9.67 17.86 7.52L17.86 2.21L16.81 2.21L16.81 7.49C16.81 9.95 18.44 11.59 20.75 11.59C23.07 11.59 24.70 9.94 24.70 7.49L24.70 2.21ZM39.69 6.75C40.35 6.45 40.94 5.85 40.94 4.66C40.94 3.54 40.19 2.21 38.01 2.21L33.85 2.21L33.85 11.48L38.25 11.48C40.36 11.48 41.41 10.43 41.41 9.04C41.41 7.66 40.47 7 39.69 6.75ZM34.90 3.21L38.12 3.21C39.40 3.21 39.89 3.98 39.89 4.75C39.89 5.88 38.98 6.36 38.01 6.36L34.90 6.36ZM38.36 10.49L34.90 10.49L34.90 7.31L38.25 7.31C39.72 7.31 40.36 8.09 40.36 8.96C40.36 9.93 39.63 10.49 38.36 10.49ZM64.26 2.21L62.94 2.21L59.01 11.48L60.17 11.48L61.31 8.79L65.90 8.79L67.03 11.48L68.19 11.48ZM61.71 7.83L63.60 3.30L65.49 7.83ZM83.31 2.21L83.31 10.01L77.59 2.21L76.37 2.21L76.37 11.48L77.42 11.48L77.42 3.65L83.15 11.48L84.36 11.48L84.36 2.21ZM97.54 2.21L93.63 2.21L93.63 11.48L97.54 11.48C99.75 11.48 101.79 9.74 101.79 6.85C101.79 3.95 99.75 2.21 97.54 2.21ZM97.50 10.49L94.68 10.49L94.68 3.21L97.50 3.21C99.47 3.21 100.74 4.86 100.74 6.85C100.74 8.83 99.47 10.49 97.50 10.49ZM121.52 8.18L124.64 8.18C126.62 8.18 127.83 7.03 127.83 5.19C127.83 3.37 126.62 2.21 124.64 2.21L120.47 2.21L120.47 11.48L121.52 11.48ZM124.57 3.21C126.03 3.21 126.78 3.96 126.78 5.19C126.78 6.44 126.03 7.20 124.57 7.20L121.52 7.20L121.52 3.21ZM137.31 2.21L136.26 2.21L136.26 11.48L137.31 11.48ZM153.19 3.22L153.19 2.21L145.94 2.21L145.94 3.19L151.90 3.19L145.85 10.49L145.85 11.48L153.19 11.48L153.19 10.50L147.14 10.50ZM168.36 3.22L168.36 2.21L161.11 2.21L161.11 3.19L167.08 3.19L161.03 10.49L161.03 11.48L168.36 11.48L168.36 10.50L162.32 10.50ZM181.09 2.21L179.77 2.21L175.84 11.48L177.00 11.48L178.14 8.79L182.73 8.79L183.86 11.48L185.02 11.48ZM178.54 7.83L180.43 3.30L182.32 7.83Z"></path></g></svg>