<svg data-v-423bf9ae="" xmlns="http://www.w3.org/2000/svg" viewBox="0 0 245.9651387992253 60" class="font"><!----><!----><!----><g data-v-423bf9ae="" id="3b849d14-aaf1-4061-aaad-87d3ca2f33f1" fill="black" transform="matrix(4.958037376403809,0,0,4.958037376403809,-0.6391229033470154,-19.7740478515625)"><path d="M6.68 8.79L7.49 4.98L7.49 4.98Q6.92 5.29 6.27 6.14L6.27 6.14L6.27 6.14Q5.63 6.99 4.97 8.30L4.97 8.30L4.97 8.30Q5.47 8.40 5.90 8.53L5.90 8.53L5.90 8.53Q6.33 8.65 6.68 8.79L6.68 8.79ZM8.58 3.99L8.58 3.99L8.58 3.99Q8.88 3.99 9.17 4.04L9.17 4.04L9.17 4.04Q9.46 4.09 9.69 4.19L9.69 4.19L7.49 14.49L5.47 14.49L6.55 9.41L6.55 9.41Q6.06 9.18 5.63 9.07L5.63 9.07L5.63 9.07Q5.19 8.95 4.68 8.90L4.68 8.90L4.68 8.90Q3.88 10.64 3.37 12.43L3.37 12.43L3.37 12.43Q2.86 14.22 2.86 15.30L2.86 15.30L2.86 15.30Q2.86 15.55 2.91 15.74L2.91 15.74L2.91 15.74Q2.95 15.93 3.05 16.09L3.05 16.09L3.05 16.09Q1.99 16.09 1.58 15.72L1.58 15.72L1.58 15.72Q1.18 15.36 1.18 14.60L1.18 14.60L1.18 14.60Q1.18 13.66 1.74 12.10L1.74 12.10L1.74 12.10Q2.31 10.53 3.23 8.90L3.23 8.90L3.23 8.90Q2.52 8.95 2.12 9.13L2.12 9.13L2.12 9.13Q1.72 9.31 1.60 9.63L1.60 9.63L1.60 9.63Q1.65 9.63 1.72 9.78L1.72 9.78L1.72 9.78Q1.78 9.93 1.78 10.07L1.78 10.07L1.78 10.07Q1.78 10.30 1.55 10.46L1.55 10.46L1.55 10.46Q1.33 10.61 0.99 10.61L0.99 10.61L0.99 10.61Q0.60 10.61 0.36 10.39L0.36 10.39L0.36 10.39Q0.13 10.18 0.13 9.80L0.13 9.80L0.13 9.80Q0.13 9.07 0.95 8.57L0.95 8.57L0.95 8.57Q1.76 8.08 2.98 8.08L2.98 8.08L2.98 8.08Q3.12 8.08 3.30 8.09L3.30 8.09L3.30 8.09Q3.49 8.09 3.71 8.12L3.71 8.12L3.71 8.12Q4.94 6.17 6.22 5.08L6.22 5.08L6.22 5.08Q7.49 3.99 8.58 3.99ZM9.24 12.89L9.24 12.89L9.24 12.89Q9.24 12.71 9.27 12.48L9.27 12.48L9.27 12.48Q9.30 12.25 9.35 11.98L9.35 11.98L10.85 4.97L12.92 4.69L11.31 12.25L11.31 12.25Q11.28 12.38 11.27 12.48L11.27 12.48L11.27 12.48Q11.26 12.59 11.26 12.70L11.26 12.70L11.26 12.70Q11.26 12.98 11.39 13.10L11.39 13.10L11.39 13.10Q11.52 13.22 11.83 13.22L11.83 13.22L11.83 13.22Q12.22 13.22 12.57 12.87L12.57 12.87L12.57 12.87Q12.92 12.53 13.09 11.98L13.09 11.98L13.68 11.98L13.68 11.98Q13.23 13.26 12.47 13.92L12.47 13.92L12.47 13.92Q11.72 14.57 10.74 14.57L10.74 14.57L10.74 14.57Q10.04 14.57 9.64 14.13L9.64 14.13L9.64 14.13Q9.24 13.69 9.24 12.89ZM14.95 14.57L14.95 14.57L14.95 14.57Q14.01 14.57 13.50 14.11L13.50 14.11L13.50 14.11Q12.99 13.64 12.99 12.78L12.99 12.78L12.99 12.78Q12.99 12.59 13.02 12.39L13.02 12.39L13.02 12.39Q13.05 12.19 13.09 11.98L13.09 11.98L14.59 4.97L16.66 4.69L15.99 7.84L15.99 7.84Q16.32 7.63 16.58 7.54L16.58 7.54L16.58 7.54Q16.84 7.45 17.14 7.45L17.14 7.45L17.14 7.45Q17.96 7.45 18.38 8.04L18.38 8.04L18.38 8.04Q18.79 8.64 18.79 9.84L18.79 9.84L18.79 9.84Q18.79 10.67 18.54 11.54L18.54 11.54L18.54 11.54Q18.28 12.40 17.84 13.05L17.84 13.05L17.84 13.05Q17.32 13.80 16.59 14.19L16.59 14.19L16.59 14.19Q15.86 14.57 14.95 14.57ZM14.99 12.57L14.99 12.57L14.99 12.57Q14.99 12.89 15.18 13.05L15.18 13.05L15.18 13.05Q15.37 13.22 15.74 13.22L15.74 13.22L15.74 13.22Q16.37 13.22 16.87 12.11L16.87 12.11L16.87 12.11Q17.37 11.00 17.37 9.79L17.37 9.79L17.37 9.79Q17.37 9.20 17.17 8.82L17.17 8.82L17.17 8.82Q16.97 8.44 16.63 8.44L16.63 8.44L16.63 8.44Q16.41 8.44 16.16 8.51L16.16 8.51L16.16 8.51Q15.90 8.58 15.81 8.69L15.81 8.69L15.04 12.25L15.04 12.25Q15.02 12.33 15.01 12.42L15.01 12.42L15.01 12.42Q14.99 12.50 14.99 12.57ZM24.02 8.13L24.02 8.13L24.02 8.23L24.18 7.49L26.19 7.49L25.19 12.25L25.19 12.25Q25.16 12.38 25.14 12.48L25.14 12.48L25.14 12.48Q25.13 12.59 25.13 12.70L25.13 12.70L25.13 12.70Q25.13 13.01 25.27 13.15L25.27 13.15L25.27 13.15Q25.41 13.30 25.70 13.30L25.70 13.30L25.70 13.30Q26.07 13.30 26.36 12.96L26.36 12.96L26.36 12.96Q26.66 12.61 26.84 11.98L26.84 11.98L27.43 11.98L27.43 11.98Q26.98 13.27 26.26 13.92L26.26 13.92L26.26 13.92Q25.55 14.57 24.61 14.57L24.61 14.57L24.61 14.57Q24.01 14.57 23.65 14.24L23.65 14.24L23.65 14.24Q23.30 13.90 23.24 13.29L23.24 13.29L23.24 13.29Q22.81 13.93 22.28 14.25L22.28 14.25L22.28 14.25Q21.76 14.57 21.15 14.57L21.15 14.57L21.15 14.57Q20.29 14.57 19.79 13.99L19.79 13.99L19.79 13.99Q19.29 13.40 19.29 12.32L19.29 12.32L19.29 12.32Q19.29 11.54 19.53 10.68L19.53 10.68L19.53 10.68Q19.77 9.83 20.19 9.13L20.19 9.13L20.19 9.13Q20.71 8.30 21.39 7.86L21.39 7.86L21.39 7.86Q22.08 7.42 22.89 7.42L22.89 7.42L22.89 7.42Q23.44 7.42 23.73 7.61L23.73 7.61L23.73 7.61Q24.02 7.80 24.02 8.13ZM23.23 11.98L23.90 8.82L23.90 8.82Q23.90 8.61 23.74 8.45L23.74 8.45L23.74 8.45Q23.59 8.29 23.32 8.29L23.32 8.29L23.32 8.29Q22.55 8.29 21.96 9.58L21.96 9.58L21.96 9.58Q21.36 10.86 21.36 12.12L21.36 12.12L21.36 12.12Q21.36 12.67 21.52 12.94L21.52 12.94L21.52 12.94Q21.67 13.22 22.06 13.22L22.06 13.22L22.06 13.22Q22.43 13.22 22.77 12.87L22.77 12.87L22.77 12.87Q23.11 12.52 23.23 11.98L23.23 11.98ZM30.24 12.99L30.24 12.99L30.24 12.99Q30.24 12.74 30.30 12.36L30.30 12.36L30.30 12.36Q30.37 11.98 30.56 11.16L30.56 11.16L30.56 11.16Q30.76 10.36 30.81 10.01L30.81 10.01L30.81 10.01Q30.87 9.66 30.87 9.42L30.87 9.42L30.87 9.42Q30.87 9.07 30.74 8.89L30.74 8.89L30.74 8.89Q30.62 8.71 30.37 8.71L30.37 8.71L30.37 8.71Q30.03 8.71 29.74 9.05L29.74 9.05L29.74 9.05Q29.46 9.39 29.27 10.00L29.27 10.00L28.32 14.49L26.31 14.49L27.79 7.49L29.81 7.49L29.65 8.22L29.65 8.22Q30.00 7.83 30.41 7.63L30.41 7.63L30.41 7.63Q30.81 7.43 31.29 7.43L31.29 7.43L31.29 7.43Q32.03 7.43 32.44 7.84L32.44 7.84L32.44 7.84Q32.84 8.25 32.84 9.02L32.84 9.02L32.84 9.02Q32.84 9.34 32.77 9.78L32.77 9.78L32.77 9.78Q32.69 10.22 32.47 11.13L32.47 11.13L32.47 11.13Q32.28 11.84 32.23 12.14L32.23 12.14L32.23 12.14Q32.17 12.43 32.17 12.63L32.17 12.63L32.17 12.63Q32.17 12.92 32.31 13.07L32.31 13.07L32.31 13.07Q32.45 13.22 32.73 13.22L32.73 13.22L32.73 13.22Q33.08 13.22 33.33 12.98L33.33 12.98L33.33 12.98Q33.59 12.74 33.91 11.98L33.91 11.98L34.50 11.98L34.50 11.98Q34.05 13.29 33.41 13.93L33.41 13.93L33.41 13.93Q32.77 14.57 31.89 14.57L31.89 14.57L31.89 14.57Q31.11 14.57 30.67 14.15L30.67 14.15L30.67 14.15Q30.24 13.72 30.24 12.99ZM33.71 12.33L33.71 12.33L33.71 12.33Q33.71 11.54 33.97 10.64L33.97 10.64L33.97 10.64Q34.23 9.74 34.68 9.04L34.68 9.04L34.68 9.04Q35.20 8.22 35.92 7.79L35.92 7.79L35.92 7.79Q36.65 7.36 37.55 7.36L37.55 7.36L37.55 7.36Q38.44 7.36 38.89 7.92L38.89 7.92L38.89 7.92Q39.34 8.48 39.34 9.60L39.34 9.60L39.34 9.60Q39.37 9.62 39.40 9.63L39.40 9.63L39.40 9.63Q39.44 9.63 39.49 9.63L39.49 9.63L39.49 9.63Q39.93 9.63 40.53 9.39L40.53 9.39L40.53 9.39Q41.13 9.16 41.65 8.79L41.65 8.79L41.78 9.17L41.78 9.17Q41.38 9.59 40.73 9.90L40.73 9.90L40.73 9.90Q40.08 10.21 39.30 10.33L39.30 10.33L39.30 10.33Q39.13 12.22 38.21 13.38L38.21 13.38L38.21 13.38Q37.28 14.55 35.95 14.55L35.95 14.55L35.95 14.55Q34.86 14.55 34.29 13.99L34.29 13.99L34.29 13.99Q33.71 13.43 33.71 12.33ZM37.66 8.22L37.66 8.22L37.66 8.22Q36.99 8.22 36.39 9.58L36.39 9.58L36.39 9.58Q35.80 10.93 35.80 12.15L35.80 12.15L35.80 12.15Q35.80 12.81 35.95 13.05L35.95 13.05L35.95 13.05Q36.09 13.29 36.51 13.29L36.51 13.29L36.51 13.29Q37.03 13.29 37.50 12.45L37.50 12.45L37.50 12.45Q37.97 11.61 38.14 10.37L38.14 10.37L38.14 10.37Q37.94 10.33 37.85 10.19L37.85 10.19L37.85 10.19Q37.76 10.04 37.76 9.79L37.76 9.79L37.76 9.79Q37.76 9.52 37.87 9.32L37.87 9.32L37.87 9.32Q37.98 9.13 38.19 9.03L38.19 9.03L38.19 9.03Q38.16 8.58 38.05 8.40L38.05 8.40L38.05 8.40Q37.93 8.22 37.66 8.22ZM42.34 3.99L43.81 3.99L42.53 6.64L41.48 6.64L42.34 3.99ZM48.20 12.15L48.20 12.15L48.20 12.15Q48.20 12.32 48.19 12.45L48.19 12.45L48.19 12.45Q48.17 12.57 48.15 12.68L48.15 12.68L48.15 12.68Q48.43 12.52 48.69 12.33L48.69 12.33L48.69 12.33Q48.96 12.15 49.15 11.98L49.15 11.98L49.74 11.98L49.74 11.98Q49.31 12.49 48.78 12.92L48.78 12.92L48.78 12.92Q48.26 13.34 47.60 13.73L47.60 13.73L47.60 13.73Q47.22 14.14 46.63 14.36L46.63 14.36L46.63 14.36Q46.05 14.57 45.40 14.57L45.40 14.57L45.40 14.57Q44.46 14.57 43.91 14.06L43.91 14.06L43.91 14.06Q43.36 13.55 43.36 12.78L43.36 12.78L43.36 12.78Q43.36 12.35 43.57 11.99L43.57 11.99L43.57 11.99Q43.78 11.63 44.10 11.48L44.10 11.48L44.10 11.48Q44.58 10.63 44.99 9.65L44.99 9.65L44.99 9.65Q45.40 8.68 45.82 7.34L45.82 7.34L47.89 7.06L47.89 7.06Q47.94 8.11 47.99 8.97L47.99 8.97L47.99 8.97Q48.05 9.84 48.13 10.86L48.13 10.86L48.13 10.86Q48.17 11.45 48.19 11.69L48.19 11.69L48.19 11.69Q48.20 11.93 48.20 12.15ZM45.91 8.85L45.91 8.85L45.91 8.85Q45.72 9.42 45.47 10.04L45.47 10.04L45.47 10.04Q45.21 10.67 44.77 11.49L44.77 11.49L44.77 11.49Q44.93 11.56 45.01 11.69L45.01 11.69L45.01 11.69Q45.09 11.82 45.09 11.98L45.09 11.98L45.09 11.98Q45.09 12.25 44.91 12.46L44.91 12.46L44.91 12.46Q44.73 12.67 44.48 12.67L44.48 12.67L44.48 12.67Q44.34 12.67 44.24 12.62L44.24 12.62L44.24 12.62Q44.14 12.57 44.10 12.49L44.10 12.49L44.10 12.49Q44.10 13.01 44.30 13.24L44.30 13.24L44.30 13.24Q44.51 13.47 44.95 13.47L44.95 13.47L44.95 13.47Q45.53 13.47 45.85 13.13L45.85 13.13L45.85 13.13Q46.17 12.80 46.17 12.17L46.17 12.17L46.17 12.17Q46.17 11.97 46.16 11.77L46.16 11.77L46.16 11.77Q46.14 11.56 46.10 11.09L46.10 11.09L46.10 11.09Q46.03 10.43 45.99 9.93L45.99 9.93L45.99 9.93Q45.95 9.42 45.91 8.85Z"></path></g><!----><!----></svg>